<svg xmlns="http://www.w3.org/2000/svg" width="512" height="512"><g style="stroke:#ea0;stroke-opacity:1"><g style="stroke-width:29.7836;stroke-dasharray:none"><path d="M257.792 22.6v74.807M64.89 107.335l83.126 48.015" style="fill:none;stroke:#ea0;stroke-width:29.7836;stroke-linecap:round;stroke-linejoin:round;stroke-dasharray:none;stroke-opacity:1" transform="matrix(1.15649 0 0 1.0704 -42.133 16.537)"/><g style="stroke:#ea0;stroke-width:29.7836;stroke-dasharray:none;stroke-opacity:1"><g style="stroke:#ea0;stroke-width:39.1536;stroke-dasharray:none;stroke-opacity:1"><path d="M257.985 224.43 75.932 329.54-106.12 224.43V14.214L75.932-90.895 257.985 14.214Z" style="fill:none;stroke:#ea0;stroke-width:46.9938;stroke-linecap:round;stroke-linejoin:round;stroke-dasharray:none;stroke-opacity:1" transform="matrix(.73296 0 0 -.6784 198.273 409.61)"/><path d="M256 319.275v176.684" style="fill:none;stroke:#ea0;stroke-width:39.1536;stroke-dasharray:none;stroke-opacity:1" transform="matrix(.87973 0 0 .81424 28.718 68.697)"/><path d="M114.584 237.59 256 319.275M397.711 237.59l-141.415 81.685" style="fill:none;stroke:#ea0;stroke-width:39.1536;stroke-linecap:butt;stroke-linejoin:round;stroke-dasharray:none;stroke-opacity:1" transform="matrix(.87973 0 0 .81424 28.718 68.697)"/></g></g><path d="m450.694 107.334-83.126 48.016" style="fill:none;stroke:#ea0;stroke-width:29.7836;stroke-linecap:round;stroke-linejoin:round;stroke-dasharray:none;stroke-opacity:1" transform="matrix(1.15649 0 0 1.0704 -42.133 16.537)"/></g></g></svg>